<mxfile host="app.diagrams.net" modified="2022-04-12T06:50:46.935Z" agent="5.0 (Macintosh; Intel Mac OS X 10_15_7) AppleWebKit/537.36 (KHTML, like Gecko) Chrome/99.0.4844.51 Safari/537.36 Edg/99.0.1150.36" etag="yvRz26iLGDDkimdip1iP" version="17.4.3" type="github" pages="2">
  <diagram id="WCe-P-RAnxZw8klEhNLF" name="CSBClouter">
    <mxGraphModel dx="688" dy="478" grid="0" gridSize="10" guides="1" tooltips="1" connect="1" arrows="1" fold="1" page="1" pageScale="1" pageWidth="850" pageHeight="1100" math="0" shadow="0">
      <root>
        <mxCell id="0" />
        <mxCell id="1" parent="0" />
        <mxCell id="wkZ2jTDMAUojiPWNhoWG-1" value="&lt;font style=&quot;font-size: 18px&quot;&gt;CSB&lt;/font&gt;" style="whiteSpace=wrap;html=1;aspect=fixed;" vertex="1" parent="1">
          <mxGeometry x="340" y="360" width="100" height="100" as="geometry" />
        </mxCell>
        <mxCell id="wkZ2jTDMAUojiPWNhoWG-3" value="Omni" style="rounded=1;whiteSpace=wrap;html=1;fontSize=18;" vertex="1" parent="1">
          <mxGeometry x="560" y="440" width="90" height="70" as="geometry" />
        </mxCell>
        <mxCell id="wkZ2jTDMAUojiPWNhoWG-4" value="T24" style="rounded=1;whiteSpace=wrap;html=1;fontSize=18;" vertex="1" parent="1">
          <mxGeometry x="560" y="340" width="90" height="70" as="geometry" />
        </mxCell>
        <mxCell id="wkZ2jTDMAUojiPWNhoWG-5" value="Epay" style="rounded=1;whiteSpace=wrap;html=1;fontSize=18;" vertex="1" parent="1">
          <mxGeometry x="70" y="379" width="90" height="70" as="geometry" />
        </mxCell>
        <mxCell id="wkZ2jTDMAUojiPWNhoWG-6" value="ATM" style="rounded=1;whiteSpace=wrap;html=1;fontSize=18;" vertex="1" parent="1">
          <mxGeometry x="70" y="470" width="90" height="70" as="geometry" />
        </mxCell>
        <mxCell id="wkZ2jTDMAUojiPWNhoWG-7" value="Outgoing Partner" style="swimlane;fontStyle=0;childLayout=stackLayout;horizontal=1;startSize=30;horizontalStack=0;resizeParent=1;resizeParentMax=0;resizeLast=0;collapsible=1;marginBottom=0;fontSize=18;" vertex="1" parent="1">
          <mxGeometry x="70" y="235" width="149" height="120" as="geometry">
            <mxRectangle x="70" y="220" width="164" height="30" as="alternateBounds" />
          </mxGeometry>
        </mxCell>
        <mxCell id="wkZ2jTDMAUojiPWNhoWG-8" value="Napas" style="text;strokeColor=none;fillColor=none;align=left;verticalAlign=middle;spacingLeft=4;spacingRight=4;overflow=hidden;points=[[0,0.5],[1,0.5]];portConstraint=eastwest;rotatable=0;fontSize=18;" vertex="1" parent="wkZ2jTDMAUojiPWNhoWG-7">
          <mxGeometry y="30" width="149" height="30" as="geometry" />
        </mxCell>
        <mxCell id="wkZ2jTDMAUojiPWNhoWG-9" value="Card scheme" style="text;strokeColor=none;fillColor=none;align=left;verticalAlign=middle;spacingLeft=4;spacingRight=4;overflow=hidden;points=[[0,0.5],[1,0.5]];portConstraint=eastwest;rotatable=0;fontSize=18;" vertex="1" parent="wkZ2jTDMAUojiPWNhoWG-7">
          <mxGeometry y="60" width="149" height="30" as="geometry" />
        </mxCell>
        <mxCell id="wkZ2jTDMAUojiPWNhoWG-10" value="Partner/Merchant" style="text;strokeColor=none;fillColor=none;align=left;verticalAlign=middle;spacingLeft=4;spacingRight=4;overflow=hidden;points=[[0,0.5],[1,0.5]];portConstraint=eastwest;rotatable=0;fontSize=18;" vertex="1" parent="wkZ2jTDMAUojiPWNhoWG-7">
          <mxGeometry y="90" width="149" height="30" as="geometry" />
        </mxCell>
        <mxCell id="wkZ2jTDMAUojiPWNhoWG-11" value="DB2" style="shape=cylinder3;whiteSpace=wrap;html=1;boundedLbl=1;backgroundOutline=1;size=15;fontSize=18;" vertex="1" parent="1">
          <mxGeometry x="360" y="580" width="60" height="80" as="geometry" />
        </mxCell>
        <mxCell id="wkZ2jTDMAUojiPWNhoWG-12" value="SQL" style="shape=cylinder3;whiteSpace=wrap;html=1;boundedLbl=1;backgroundOutline=1;size=15;fontSize=18;" vertex="1" parent="1">
          <mxGeometry x="460" y="580" width="60" height="80" as="geometry" />
        </mxCell>
        <mxCell id="wkZ2jTDMAUojiPWNhoWG-13" value="Redis" style="shape=cylinder3;whiteSpace=wrap;html=1;boundedLbl=1;backgroundOutline=1;size=15;fontSize=18;" vertex="1" parent="1">
          <mxGeometry x="260" y="580" width="60" height="80" as="geometry" />
        </mxCell>
        <mxCell id="wkZ2jTDMAUojiPWNhoWG-14" value="" style="endArrow=classic;startArrow=classic;html=1;rounded=0;fontSize=18;entryX=0.5;entryY=1;entryDx=0;entryDy=0;exitX=0.5;exitY=0;exitDx=0;exitDy=0;exitPerimeter=0;" edge="1" parent="1" source="wkZ2jTDMAUojiPWNhoWG-13" target="wkZ2jTDMAUojiPWNhoWG-1">
          <mxGeometry width="50" height="50" relative="1" as="geometry">
            <mxPoint x="340" y="570" as="sourcePoint" />
            <mxPoint x="390" y="520" as="targetPoint" />
          </mxGeometry>
        </mxCell>
        <mxCell id="wkZ2jTDMAUojiPWNhoWG-15" value="" style="endArrow=classic;startArrow=classic;html=1;rounded=0;fontSize=18;entryX=0;entryY=0.5;entryDx=0;entryDy=0;exitX=1.026;exitY=0.435;exitDx=0;exitDy=0;exitPerimeter=0;" edge="1" parent="1" source="wkZ2jTDMAUojiPWNhoWG-5" target="wkZ2jTDMAUojiPWNhoWG-1">
          <mxGeometry width="50" height="50" relative="1" as="geometry">
            <mxPoint x="190" y="400" as="sourcePoint" />
            <mxPoint x="310" y="330" as="targetPoint" />
          </mxGeometry>
        </mxCell>
        <mxCell id="wkZ2jTDMAUojiPWNhoWG-16" value="" style="endArrow=classic;startArrow=classic;html=1;rounded=0;fontSize=18;exitX=0.5;exitY=0;exitDx=0;exitDy=0;exitPerimeter=0;entryX=0.5;entryY=1;entryDx=0;entryDy=0;" edge="1" parent="1" source="wkZ2jTDMAUojiPWNhoWG-12" target="wkZ2jTDMAUojiPWNhoWG-1">
          <mxGeometry width="50" height="50" relative="1" as="geometry">
            <mxPoint x="290" y="600" as="sourcePoint" />
            <mxPoint x="390" y="510" as="targetPoint" />
          </mxGeometry>
        </mxCell>
        <mxCell id="wkZ2jTDMAUojiPWNhoWG-17" value="" style="endArrow=classic;startArrow=classic;html=1;rounded=0;fontSize=18;entryX=0.5;entryY=1;entryDx=0;entryDy=0;" edge="1" parent="1" source="wkZ2jTDMAUojiPWNhoWG-11" target="wkZ2jTDMAUojiPWNhoWG-1">
          <mxGeometry width="50" height="50" relative="1" as="geometry">
            <mxPoint x="420" y="600" as="sourcePoint" />
            <mxPoint x="540" y="530" as="targetPoint" />
          </mxGeometry>
        </mxCell>
        <mxCell id="wkZ2jTDMAUojiPWNhoWG-18" value="" style="endArrow=classic;startArrow=classic;html=1;rounded=0;fontSize=18;entryX=0;entryY=0.5;entryDx=0;entryDy=0;exitX=1;exitY=0.5;exitDx=0;exitDy=0;" edge="1" parent="1" source="wkZ2jTDMAUojiPWNhoWG-6" target="wkZ2jTDMAUojiPWNhoWG-1">
          <mxGeometry width="50" height="50" relative="1" as="geometry">
            <mxPoint x="172.34000000000003" y="419.45000000000016" as="sourcePoint" />
            <mxPoint x="350" y="420" as="targetPoint" />
          </mxGeometry>
        </mxCell>
        <mxCell id="wkZ2jTDMAUojiPWNhoWG-19" value="" style="endArrow=classic;startArrow=classic;html=1;rounded=0;fontSize=18;entryX=0;entryY=0.5;entryDx=0;entryDy=0;exitX=1;exitY=0.5;exitDx=0;exitDy=0;" edge="1" parent="1" source="wkZ2jTDMAUojiPWNhoWG-9" target="wkZ2jTDMAUojiPWNhoWG-1">
          <mxGeometry width="50" height="50" relative="1" as="geometry">
            <mxPoint x="172.34000000000003" y="419.45000000000016" as="sourcePoint" />
            <mxPoint x="350" y="420" as="targetPoint" />
          </mxGeometry>
        </mxCell>
        <mxCell id="wkZ2jTDMAUojiPWNhoWG-20" value="OSB" style="rounded=1;whiteSpace=wrap;html=1;fontSize=18;" vertex="1" parent="1">
          <mxGeometry x="345" y="220" width="90" height="70" as="geometry" />
        </mxCell>
        <mxCell id="wkZ2jTDMAUojiPWNhoWG-21" value="" style="endArrow=classic;startArrow=classic;html=1;rounded=0;fontSize=18;entryX=0.5;entryY=1;entryDx=0;entryDy=0;exitX=0.5;exitY=0;exitDx=0;exitDy=0;" edge="1" parent="1" source="wkZ2jTDMAUojiPWNhoWG-1" target="wkZ2jTDMAUojiPWNhoWG-20">
          <mxGeometry width="50" height="50" relative="1" as="geometry">
            <mxPoint x="380" y="410" as="sourcePoint" />
            <mxPoint x="430" y="360" as="targetPoint" />
          </mxGeometry>
        </mxCell>
        <mxCell id="wkZ2jTDMAUojiPWNhoWG-22" value="" style="endArrow=classic;startArrow=classic;html=1;rounded=0;fontSize=18;entryX=0;entryY=0.5;entryDx=0;entryDy=0;exitX=1;exitY=0.5;exitDx=0;exitDy=0;" edge="1" parent="1" source="wkZ2jTDMAUojiPWNhoWG-1" target="wkZ2jTDMAUojiPWNhoWG-4">
          <mxGeometry width="50" height="50" relative="1" as="geometry">
            <mxPoint x="510" y="429" as="sourcePoint" />
            <mxPoint x="560" y="379" as="targetPoint" />
          </mxGeometry>
        </mxCell>
        <mxCell id="wkZ2jTDMAUojiPWNhoWG-24" value="" style="endArrow=classic;startArrow=classic;html=1;rounded=0;fontSize=18;entryX=0;entryY=0.5;entryDx=0;entryDy=0;exitX=1;exitY=0.5;exitDx=0;exitDy=0;" edge="1" parent="1" source="wkZ2jTDMAUojiPWNhoWG-1" target="wkZ2jTDMAUojiPWNhoWG-3">
          <mxGeometry width="50" height="50" relative="1" as="geometry">
            <mxPoint x="440" y="410" as="sourcePoint" />
            <mxPoint x="570" y="385" as="targetPoint" />
          </mxGeometry>
        </mxCell>
      </root>
    </mxGraphModel>
  </diagram>
  <diagram id="HSy2Jm1so7xZymUDrrCm" name="Detail">
    <mxGraphModel dx="895" dy="621" grid="1" gridSize="10" guides="1" tooltips="1" connect="1" arrows="1" fold="1" page="1" pageScale="1" pageWidth="850" pageHeight="1100" math="0" shadow="0">
      <root>
        <mxCell id="0" />
        <mxCell id="1" parent="0" />
        <mxCell id="BxQR6fe6rRM6In_AlnI_-1" value="" style="whiteSpace=wrap;html=1;aspect=fixed;fontSize=18;" vertex="1" parent="1">
          <mxGeometry x="250" y="170" width="370" height="370" as="geometry" />
        </mxCell>
        <mxCell id="BxQR6fe6rRM6In_AlnI_-3" value="CSBIST" style="rounded=1;whiteSpace=wrap;html=1;fontSize=18;" vertex="1" parent="1">
          <mxGeometry x="289" y="200" width="120" height="60" as="geometry" />
        </mxCell>
        <mxCell id="BxQR6fe6rRM6In_AlnI_-4" value="CSBNapas" style="rounded=1;whiteSpace=wrap;html=1;fontSize=18;" vertex="1" parent="1">
          <mxGeometry x="460" y="200" width="120" height="60" as="geometry" />
        </mxCell>
        <mxCell id="BxQR6fe6rRM6In_AlnI_-7" value="CSBOmni" style="rounded=1;whiteSpace=wrap;html=1;fontSize=18;" vertex="1" parent="1">
          <mxGeometry x="289" y="430" width="120" height="60" as="geometry" />
        </mxCell>
        <mxCell id="BxQR6fe6rRM6In_AlnI_-9" value="CSBOmni" style="swimlane;fontStyle=0;childLayout=stackLayout;horizontal=1;startSize=30;horizontalStack=0;resizeParent=1;resizeParentMax=0;resizeLast=0;collapsible=1;marginBottom=0;fontSize=18;" vertex="1" parent="1">
          <mxGeometry x="279" y="303" width="140" height="90" as="geometry" />
        </mxCell>
        <mxCell id="BxQR6fe6rRM6In_AlnI_-11" value="OmniMPay" style="text;strokeColor=none;fillColor=none;align=left;verticalAlign=middle;spacingLeft=4;spacingRight=4;overflow=hidden;points=[[0,0.5],[1,0.5]];portConstraint=eastwest;rotatable=0;fontSize=18;" vertex="1" parent="BxQR6fe6rRM6In_AlnI_-9">
          <mxGeometry y="30" width="140" height="30" as="geometry" />
        </mxCell>
        <mxCell id="BxQR6fe6rRM6In_AlnI_-10" value="OmniQR" style="text;strokeColor=none;fillColor=none;align=left;verticalAlign=middle;spacingLeft=4;spacingRight=4;overflow=hidden;points=[[0,0.5],[1,0.5]];portConstraint=eastwest;rotatable=0;fontSize=18;" vertex="1" parent="BxQR6fe6rRM6In_AlnI_-9">
          <mxGeometry y="60" width="140" height="30" as="geometry" />
        </mxCell>
        <mxCell id="BxQR6fe6rRM6In_AlnI_-13" value="CSBT24" style="swimlane;fontStyle=0;childLayout=stackLayout;horizontal=1;startSize=30;horizontalStack=0;resizeParent=1;resizeParentMax=0;resizeLast=0;collapsible=1;marginBottom=0;fontSize=18;" vertex="1" parent="1">
          <mxGeometry x="450" y="303" width="140" height="90" as="geometry" />
        </mxCell>
        <mxCell id="BxQR6fe6rRM6In_AlnI_-14" value="T24KH" style="text;strokeColor=none;fillColor=none;align=left;verticalAlign=middle;spacingLeft=4;spacingRight=4;overflow=hidden;points=[[0,0.5],[1,0.5]];portConstraint=eastwest;rotatable=0;fontSize=18;" vertex="1" parent="BxQR6fe6rRM6In_AlnI_-13">
          <mxGeometry y="30" width="140" height="30" as="geometry" />
        </mxCell>
        <mxCell id="BxQR6fe6rRM6In_AlnI_-15" value="T24VN" style="text;strokeColor=none;fillColor=none;align=left;verticalAlign=middle;spacingLeft=4;spacingRight=4;overflow=hidden;points=[[0,0.5],[1,0.5]];portConstraint=eastwest;rotatable=0;fontSize=18;" vertex="1" parent="BxQR6fe6rRM6In_AlnI_-13">
          <mxGeometry y="60" width="140" height="30" as="geometry" />
        </mxCell>
      </root>
    </mxGraphModel>
  </diagram>
</mxfile>
